<?xml version="1.0" encoding="UTF-8"?>
<svg id="Layer_2" data-name="Layer 2" xmlns="http://www.w3.org/2000/svg" xmlns:xlink="http://www.w3.org/1999/xlink" viewBox="0 0 107.4 107.4">
  <defs>
    <style>
      .cls-1 {
        fill: none;
      }

      .cls-1, .cls-2 {
        stroke-width: 0px;
      }

      .cls-2 {
        fill: #fff;
      }

      .cls-3 {
        clip-path: url(#clippath);
      }
    </style>
    <clipPath id="clippath">
      <circle class="cls-1" cx="53.7" cy="53.7" r="53.7" transform="translate(-10.9 93.62) rotate(-76.72)"/>
    </clipPath>
  </defs>
  <g id="OBJECTS">
    <g class="cls-3">
      <g>
        <g>
          <circle class="cls-2" cx="5.93" cy="7.46" r="1.38"/>
          <path class="cls-2" d="m7.31,17.59c0,.76-.62,1.38-1.38,1.38s-1.38-.62-1.38-1.38.62-1.38,1.38-1.38,1.38.62,1.38,1.38Z"/>
          <path class="cls-2" d="m7.31,27.72c0,.76-.62,1.38-1.38,1.38s-1.38-.62-1.38-1.38.62-1.38,1.38-1.38,1.38.62,1.38,1.38Z"/>
          <circle class="cls-2" cx="5.93" cy="37.86" r="1.38"/>
          <circle class="cls-2" cx="5.93" cy="47.99" r="1.38"/>
        </g>
        <g>
          <circle class="cls-2" cx="16.4" cy="7.46" r="1.38"/>
          <path class="cls-2" d="m17.78,17.59c0,.76-.62,1.38-1.38,1.38s-1.38-.62-1.38-1.38.62-1.38,1.38-1.38,1.38.62,1.38,1.38Z"/>
          <path class="cls-2" d="m17.78,27.72c0,.76-.62,1.38-1.38,1.38s-1.38-.62-1.38-1.38.62-1.38,1.38-1.38,1.38.62,1.38,1.38Z"/>
          <circle class="cls-2" cx="16.4" cy="37.86" r="1.38"/>
          <circle class="cls-2" cx="16.4" cy="47.99" r="1.38"/>
        </g>
      </g>
      <g>
        <g>
          <circle class="cls-2" cx="27.45" cy="7.46" r="1.38"/>
          <path class="cls-2" d="m28.83,17.59c0,.76-.62,1.38-1.38,1.38s-1.38-.62-1.38-1.38.62-1.38,1.38-1.38,1.38.62,1.38,1.38Z"/>
          <path class="cls-2" d="m28.83,27.72c0,.76-.62,1.38-1.38,1.38s-1.38-.62-1.38-1.38.62-1.38,1.38-1.38,1.38.62,1.38,1.38Z"/>
          <circle class="cls-2" cx="27.45" cy="37.86" r="1.38"/>
          <circle class="cls-2" cx="27.45" cy="47.99" r="1.38"/>
        </g>
        <g>
          <circle class="cls-2" cx="37.92" cy="7.46" r="1.38"/>
          <path class="cls-2" d="m39.3,17.59c0,.76-.62,1.38-1.38,1.38s-1.38-.62-1.38-1.38.62-1.38,1.38-1.38,1.38.62,1.38,1.38Z"/>
          <path class="cls-2" d="m39.3,27.72c0,.76-.62,1.38-1.38,1.38s-1.38-.62-1.38-1.38.62-1.38,1.38-1.38,1.38.62,1.38,1.38Z"/>
          <circle class="cls-2" cx="37.92" cy="37.86" r="1.38"/>
          <circle class="cls-2" cx="37.92" cy="47.99" r="1.38"/>
        </g>
      </g>
      <g>
        <g>
          <circle class="cls-2" cx="48.98" cy="7.46" r="1.38"/>
          <path class="cls-2" d="m50.36,17.59c0,.76-.62,1.38-1.38,1.38s-1.38-.62-1.38-1.38.62-1.38,1.38-1.38,1.38.62,1.38,1.38Z"/>
          <path class="cls-2" d="m50.36,27.72c0,.76-.62,1.38-1.38,1.38s-1.38-.62-1.38-1.38.62-1.38,1.38-1.38,1.38.62,1.38,1.38Z"/>
          <circle class="cls-2" cx="48.98" cy="37.86" r="1.38"/>
          <circle class="cls-2" cx="48.98" cy="47.99" r="1.38"/>
        </g>
        <g>
          <circle class="cls-2" cx="59.45" cy="7.46" r="1.38"/>
          <path class="cls-2" d="m60.83,17.59c0,.76-.62,1.38-1.38,1.38s-1.38-.62-1.38-1.38.62-1.38,1.38-1.38,1.38.62,1.38,1.38Z"/>
          <path class="cls-2" d="m60.83,27.72c0,.76-.62,1.38-1.38,1.38s-1.38-.62-1.38-1.38.62-1.38,1.38-1.38,1.38.62,1.38,1.38Z"/>
          <circle class="cls-2" cx="59.45" cy="37.86" r="1.38"/>
          <circle class="cls-2" cx="59.45" cy="47.99" r="1.38"/>
        </g>
      </g>
      <g>
        <g>
          <circle class="cls-2" cx="70.5" cy="7.46" r="1.38"/>
          <path class="cls-2" d="m71.88,17.59c0,.76-.62,1.38-1.38,1.38s-1.38-.62-1.38-1.38.62-1.38,1.38-1.38,1.38.62,1.38,1.38Z"/>
          <path class="cls-2" d="m71.88,27.72c0,.76-.62,1.38-1.38,1.38s-1.38-.62-1.38-1.38.62-1.38,1.38-1.38,1.38.62,1.38,1.38Z"/>
          <circle class="cls-2" cx="70.5" cy="37.86" r="1.38"/>
          <circle class="cls-2" cx="70.5" cy="47.99" r="1.38"/>
        </g>
        <g>
          <circle class="cls-2" cx="80.97" cy="7.46" r="1.38"/>
          <path class="cls-2" d="m82.35,17.59c0,.76-.62,1.38-1.38,1.38s-1.38-.62-1.38-1.38.62-1.38,1.38-1.38,1.38.62,1.38,1.38Z"/>
          <path class="cls-2" d="m82.35,27.72c0,.76-.62,1.38-1.38,1.38s-1.38-.62-1.38-1.38.62-1.38,1.38-1.38,1.38.62,1.38,1.38Z"/>
          <circle class="cls-2" cx="80.97" cy="37.86" r="1.38"/>
          <circle class="cls-2" cx="80.97" cy="47.99" r="1.38"/>
        </g>
      </g>
      <g>
        <g>
          <circle class="cls-2" cx="92.02" cy="7.46" r="1.38"/>
          <path class="cls-2" d="m93.4,17.59c0,.76-.62,1.38-1.38,1.38s-1.38-.62-1.38-1.38.62-1.38,1.38-1.38,1.38.62,1.38,1.38Z"/>
          <path class="cls-2" d="m93.4,27.72c0,.76-.62,1.38-1.38,1.38s-1.38-.62-1.38-1.38.62-1.38,1.38-1.38,1.38.62,1.38,1.38Z"/>
          <circle class="cls-2" cx="92.02" cy="37.86" r="1.38"/>
          <circle class="cls-2" cx="92.02" cy="47.99" r="1.38"/>
        </g>
        <g>
          <circle class="cls-2" cx="102.49" cy="7.46" r="1.38"/>
          <path class="cls-2" d="m103.87,17.59c0,.76-.62,1.38-1.38,1.38s-1.38-.62-1.38-1.38.62-1.38,1.38-1.38,1.38.62,1.38,1.38Z"/>
          <path class="cls-2" d="m103.87,27.72c0,.76-.62,1.38-1.38,1.38s-1.38-.62-1.38-1.38.62-1.38,1.38-1.38,1.38.62,1.38,1.38Z"/>
          <circle class="cls-2" cx="102.49" cy="37.86" r="1.38"/>
          <circle class="cls-2" cx="102.49" cy="47.99" r="1.38"/>
        </g>
      </g>
      <g>
        <g>
          <path class="cls-2" d="m7.31,58.96c0,.76-.62,1.38-1.38,1.38s-1.38-.62-1.38-1.38.62-1.38,1.38-1.38,1.38.62,1.38,1.38Z"/>
          <circle class="cls-2" cx="5.93" cy="69.09" r="1.38"/>
          <circle class="cls-2" cx="5.93" cy="79.23" r="1.38"/>
          <circle class="cls-2" cx="5.93" cy="89.36" r="1.38"/>
          <circle class="cls-2" cx="5.93" cy="99.49" r="1.38"/>
        </g>
        <g>
          <path class="cls-2" d="m17.78,58.96c0,.76-.62,1.38-1.38,1.38s-1.38-.62-1.38-1.38.62-1.38,1.38-1.38,1.38.62,1.38,1.38Z"/>
          <circle class="cls-2" cx="16.4" cy="69.09" r="1.38"/>
          <circle class="cls-2" cx="16.4" cy="79.23" r="1.38"/>
          <circle class="cls-2" cx="16.4" cy="89.36" r="1.38"/>
          <circle class="cls-2" cx="16.4" cy="99.49" r="1.38"/>
        </g>
      </g>
      <g>
        <g>
          <path class="cls-2" d="m28.83,58.96c0,.76-.62,1.38-1.38,1.38s-1.38-.62-1.38-1.38.62-1.38,1.38-1.38,1.38.62,1.38,1.38Z"/>
          <circle class="cls-2" cx="27.45" cy="69.09" r="1.38"/>
          <circle class="cls-2" cx="27.45" cy="79.23" r="1.38"/>
          <circle class="cls-2" cx="27.45" cy="89.36" r="1.38"/>
          <circle class="cls-2" cx="27.45" cy="99.49" r="1.38"/>
        </g>
        <g>
          <path class="cls-2" d="m39.3,58.96c0,.76-.62,1.38-1.38,1.38s-1.38-.62-1.38-1.38.62-1.38,1.38-1.38,1.38.62,1.38,1.38Z"/>
          <circle class="cls-2" cx="37.92" cy="69.09" r="1.38"/>
          <circle class="cls-2" cx="37.92" cy="79.23" r="1.38"/>
          <circle class="cls-2" cx="37.92" cy="89.36" r="1.38"/>
          <circle class="cls-2" cx="37.92" cy="99.49" r="1.38"/>
        </g>
      </g>
      <g>
        <g>
          <path class="cls-2" d="m50.36,58.96c0,.76-.62,1.38-1.38,1.38s-1.38-.62-1.38-1.38.62-1.38,1.38-1.38,1.38.62,1.38,1.38Z"/>
          <circle class="cls-2" cx="48.98" cy="69.09" r="1.38"/>
          <circle class="cls-2" cx="48.98" cy="79.23" r="1.38"/>
          <circle class="cls-2" cx="48.98" cy="89.36" r="1.38"/>
          <circle class="cls-2" cx="48.98" cy="99.49" r="1.38"/>
        </g>
        <g>
          <path class="cls-2" d="m60.83,58.96c0,.76-.62,1.38-1.38,1.38s-1.38-.62-1.38-1.38.62-1.38,1.38-1.38,1.38.62,1.38,1.38Z"/>
          <circle class="cls-2" cx="59.45" cy="69.09" r="1.38"/>
          <circle class="cls-2" cx="59.45" cy="79.23" r="1.38"/>
          <circle class="cls-2" cx="59.45" cy="89.36" r="1.38"/>
          <circle class="cls-2" cx="59.45" cy="99.49" r="1.38"/>
        </g>
      </g>
      <g>
        <g>
          <path class="cls-2" d="m71.88,58.96c0,.76-.62,1.38-1.38,1.38s-1.38-.62-1.38-1.38.62-1.38,1.38-1.38,1.38.62,1.38,1.38Z"/>
          <circle class="cls-2" cx="70.5" cy="69.09" r="1.38"/>
          <circle class="cls-2" cx="70.5" cy="79.23" r="1.38"/>
          <circle class="cls-2" cx="70.5" cy="89.36" r="1.38"/>
          <circle class="cls-2" cx="70.5" cy="99.49" r="1.38"/>
        </g>
        <g>
          <path class="cls-2" d="m82.35,58.96c0,.76-.62,1.38-1.38,1.38s-1.38-.62-1.38-1.38.62-1.38,1.38-1.38,1.38.62,1.38,1.38Z"/>
          <circle class="cls-2" cx="80.97" cy="69.09" r="1.38"/>
          <circle class="cls-2" cx="80.97" cy="79.23" r="1.38"/>
          <circle class="cls-2" cx="80.97" cy="89.36" r="1.38"/>
          <circle class="cls-2" cx="80.97" cy="99.49" r="1.38"/>
        </g>
      </g>
      <g>
        <g>
          <path class="cls-2" d="m93.4,58.96c0,.76-.62,1.38-1.38,1.38s-1.38-.62-1.38-1.38.62-1.38,1.38-1.38,1.38.62,1.38,1.38Z"/>
          <circle class="cls-2" cx="92.02" cy="69.09" r="1.38"/>
          <circle class="cls-2" cx="92.02" cy="79.23" r="1.38"/>
          <circle class="cls-2" cx="92.02" cy="89.36" r="1.38"/>
          <circle class="cls-2" cx="92.02" cy="99.49" r="1.38"/>
        </g>
        <g>
          <path class="cls-2" d="m103.87,58.96c0,.76-.62,1.38-1.38,1.38s-1.38-.62-1.38-1.38.62-1.38,1.38-1.38,1.38.62,1.38,1.38Z"/>
          <circle class="cls-2" cx="102.49" cy="69.09" r="1.38"/>
          <circle class="cls-2" cx="102.49" cy="79.23" r="1.38"/>
          <circle class="cls-2" cx="102.49" cy="89.36" r="1.38"/>
          <circle class="cls-2" cx="102.49" cy="99.49" r="1.38"/>
        </g>
      </g>
    </g>
  </g>
</svg>